REM MD5 c3078616804bd7e5f56e7987314ba6d3
FILE "Menkyo o Torou (Japan).bin" BINARY
  TRACK 01 MODE2/2352
    INDEX 01 00:00:00
  TRACK 02 AUDIO
    INDEX 00 33:11:67
    INDEX 01 33:13:67
  TRACK 03 AUDIO
    INDEX 00 36:26:54
    INDEX 01 36:28:54
REM LEADOUT 47:26:54
